
<svg width="317" height="20" viewBox="0 0 317 20" fill="none" xmlns="http://www.w3.org/2000/svg">
<path d="M0.333984 0.59082V19.817H4.90486V9.0805L10.3836 12.6882L16.0376 9.04994V19.817H20.6085V0.59082L10.4416 7.18754L0.333984 0.59082Z" fill="#FF6B12"></path>
<path d="M67.54 7.15699C67.54 4.19852 65.4317 0.59082 60.7436 0.59082C58.0187 0.59082 56.7591 0.59082 56.2017 0.59082H51.6309V19.8158H56.2017V13.6926C56.8461 13.6926 57.5787 13.6926 58.3693 13.6926L62.3538 19.8158H67.4807L63.3789 13.2496C66.3989 12.1854 67.54 9.31601 67.54 7.15699ZM62.8821 8.78389C62.7069 8.99139 62.4723 9.13906 62.2088 9.288C61.828 9.46495 61.3009 9.55406 60.7146 9.55406H56.203V4.73318H60.7449C61.712 4.73318 62.3853 4.96869 62.8254 5.50208C63.2932 6.00492 63.4395 6.6847 63.4395 7.15826C63.4395 7.60127 63.2932 8.28106 62.8821 8.78389Z" fill="#FF6B12"></path>
<path d="M78.7024 0.59082H74.1328V19.8158H78.7024V0.59082Z" fill="#FF6B12"></path>
<path d="M85.293 0.59082V19.817H89.8638V9.0805L95.3426 12.6882L100.997 9.04994V19.817H105.566V0.59082L95.4006 7.18754L85.293 0.59082Z" fill="#FF6B12"></path>
<path d="M151.913 7.15699C151.913 4.19852 149.805 0.59082 145.117 0.59082C142.392 0.59082 141.132 0.59082 140.575 0.59082H136.004V19.8158H140.575V13.6926C141.219 13.6926 141.952 13.6926 142.742 13.6926L146.727 19.8158H151.854L147.752 13.2496C150.772 12.1854 151.913 9.31601 151.913 7.15699ZM147.255 8.78389C147.08 8.99139 146.845 9.13906 146.582 9.288C146.201 9.46495 145.674 9.55406 145.088 9.55406H140.576V4.73318H145.118C146.085 4.73318 146.758 4.96869 147.198 5.50208C147.666 6.00492 147.812 6.6847 147.812 7.15826C147.812 7.60127 147.666 8.28106 147.255 8.78389Z" fill="#FF6B12"></path>
<path d="M163.077 0.59082H158.506V19.8158H163.077V0.59082Z" fill="#FF6B12"></path>
<path d="M194.248 0.59082V19.817H198.816V9.0805L204.296 12.6882L209.952 9.04994V19.817H214.521V0.59082L204.356 7.18754L194.248 0.59082Z" fill="#FF6B12"></path>
<path d="M264.678 0.59082H258.202L250.613 8.25178V0.59082H246.045V19.817H250.613V14.7887L252.695 12.6589L259.374 19.817H265.849L255.946 9.37583L264.678 0.59082Z" fill="#FF6B12"></path>
<path d="M271.123 19.817H284.422V15.676H275.691V12.2745H283.104V8.13339H275.691V4.73191H284.422V0.59082H271.123V19.817Z" fill="#FF6B12"></path>
<path d="M296.598 12.776C298.937 12.776 301.778 10.8831 301.778 7.62037C301.778 5.6332 301.778 2.78421 301.778 0.59082H299.086V7.62037C299.086 7.9959 299.03 8.31415 298.88 8.61458C298.75 8.89592 298.546 9.13906 298.305 9.36439C298.063 9.58971 297.748 9.75775 297.431 9.89014C297.154 9.98434 296.856 10.0595 296.596 10.0595C296.17 10.0595 295.483 9.85322 294.943 9.38475C294.405 8.93538 294.145 8.33453 294.145 7.58472V0.593361H291.453C291.453 2.84277 291.453 5.72995 291.453 7.58472C291.454 11.0333 294.444 12.776 296.598 12.776Z" fill="#FF6B12"></path>
<path d="M309.129 8.89563C309.947 8.89563 310.912 8.89563 311.989 8.89563C315.183 8.89563 316.334 6.47691 316.334 4.75326C316.334 2.87812 314.998 0.591797 312.026 0.591797C310.3 0.591797 309.501 0.591797 309.129 0.591797H306.234V8.89563V12.7757H309.129V8.89563ZM309.129 3.21547H312.026C312.621 3.21547 313.047 3.36441 313.345 3.70303C313.623 4.02128 313.734 4.45283 313.734 4.75326C313.734 5.03459 313.641 5.46615 313.383 5.7844C313.251 5.91552 313.123 6.00972 312.955 6.10392C312.695 6.21595 312.38 6.27196 311.989 6.27196H309.129V3.21547Z" fill="#FF6B12"></path>
<path d="M26.4668 19.817H31.74L33.1182 17.1246H33.127L34.9856 13.5169H34.9629L36.7219 10.1447L38.4507 13.5169H38.4469L40.2941 17.1246H40.2954L41.6723 19.817H46.9455L36.7219 0.59082L26.4668 19.817Z" fill="#FF6B12"></path>
<path d="M110.84 19.817H116.113L117.491 17.1246H117.5L119.359 13.5169H119.336L121.095 10.1447L121.367 10.6769L122.824 13.5169H122.821L124.668 17.1246L125.605 18.9565L126.045 19.817H131.319L121.095 0.59082L110.84 19.817Z" fill="#FF6B12"></path>
<path d="M168.496 19.817H173.769L175.145 17.1246H175.156L177.014 13.5169H176.993L178.75 10.1447H178.751L179.148 10.9225L180.477 13.5169H180.476L182.323 17.1246L183.702 19.817H188.975L178.75 0.59082L168.496 19.817Z" fill="#FF6B12"></path>
<path d="M220.379 19.817H225.653L227.029 17.1246H227.039L228.898 13.5169H228.876L230.634 10.1447L231.033 10.9225L232.362 13.5169H232.36L234.208 17.1246L235.586 19.817H240.859L230.634 0.59082L220.379 19.817Z" fill="#FF6B12"></path>
<path d="M316.333 17.709H291.453V20.0004H316.333V17.709Z" fill="#FF6B12"></path>
</svg>
